<svg width="18" height="20" viewBox="0 0 18 20" fill="none" xmlns="http://www.w3.org/2000/svg">
    <path fill-rule="evenodd" clip-rule="evenodd"
        d="M8.97167 4.60315C9.51052 4.64313 10.0485 4.52319 10.6149 4.24003L10.5991 4.23919C11.1079 3.98101 11.5577 3.62289 11.92 3.18981C12.2797 2.7484 12.5629 2.25702 12.7528 1.72399C12.961 1.12434 13.0276 0.566337 12.961 0C12.4613 0.024985 11.9366 0.174898 11.3869 0.458067C10.8706 0.716248 10.4125 1.07437 10.0294 1.50745C9.66293 1.92388 9.39642 2.39027 9.19654 2.90664C8.97167 3.51212 8.88839 4.06513 8.97167 4.60315ZM3.87048 18.6566C4.16281 19.0289 4.51261 19.3512 4.90654 19.6144L4.89572 19.6252C5.29715 19.8751 5.70025 20 6.13333 20C6.4115 19.9825 6.688 19.9342 6.95785 19.8542C7.08791 19.8136 7.30923 19.7214 7.64504 19.5815L7.66993 19.5711C7.91729 19.4636 8.16714 19.3737 8.42532 19.3004C8.73348 19.2213 9.05829 19.1796 9.39143 19.1796C9.71957 19.1788 10.0444 19.2188 10.3609 19.3021C10.6182 19.3787 10.8706 19.4736 11.1146 19.5852C11.3478 19.686 11.586 19.7751 11.8275 19.8543C12.1057 19.935 12.3972 19.9725 12.6887 19.96C13.1193 19.96 13.5398 19.8343 13.898 19.5969C14.2228 19.3829 14.5459 19.083 14.8807 18.6833C15.0956 18.4251 15.3788 18.0336 15.7386 17.509C16.1467 16.901 16.4906 16.2572 16.7796 15.5851C16.907 15.2853 17.017 14.9813 17.1169 14.6689C16.902 14.5898 16.6755 14.4691 16.4173 14.2942C15.8926 13.9427 15.4621 13.5146 15.1397 13.0149C14.6817 12.3278 14.4526 11.5349 14.4401 10.633C14.4352 9.90006 14.6184 9.17548 14.9765 8.53419C15.2513 8.06363 15.5953 7.63888 16.0009 7.28076C16.1883 7.11085 16.3882 6.95594 16.6047 6.82269C16.0933 6.0648 15.4079 5.53177 14.5584 5.19031C14.0754 5.00708 13.534 4.88216 12.9427 4.84051C12.6337 4.81553 12.3114 4.8322 11.9866 4.88216C11.7184 4.92381 11.4202 5.00709 11.1121 5.0987C11.0373 5.12642 10.9553 5.15755 10.8654 5.19167C10.7121 5.24984 10.536 5.31671 10.3334 5.3902C10.0403 5.51794 9.82522 5.59146 9.69727 5.63519C9.68341 5.63993 9.67057 5.64431 9.65877 5.64838C9.44639 5.71501 9.25484 5.75665 9.12158 5.75665C8.94669 5.75665 8.72182 5.71501 8.45531 5.61507C8.41367 5.60257 8.33039 5.56926 8.20027 5.51722C8.07014 5.46516 7.89315 5.39437 7.6641 5.30691C7.30598 5.17366 7.01448 5.06539 6.77295 4.99876C6.43982 4.91547 6.12333 4.87382 5.83184 4.87382C4.99899 4.89048 4.17447 5.13201 3.46655 5.57342C2.73364 6.01399 2.12567 6.64113 1.71757 7.39069C1.16622 8.34846 0.883057 9.48947 0.883057 10.797C0.883057 11.9689 1.08544 13.1665 1.50186 14.4174C1.84749 15.4926 2.34637 16.5129 2.98433 17.4457C3.25584 17.8654 3.5515 18.271 3.87048 18.6566Z"
        fill="black" />
</svg>
